<svg width="780" height="400" viewBox="0 0 780 400" xmlns="http://www.w3.org/2000/svg">
  <defs>
    <style>
      @import url('https://fonts.googleapis.com/css2?family=Share+Tech+Mono&amp;display=swap');

      .mono { font-family: 'Courier New', monospace; }

      /* Matrix rain columns */
      .m0{animation: fall0 3.1s linear infinite}
      .m1{animation: fall1 2.7s linear infinite 0.4s}
      .m2{animation: fall2 3.4s linear infinite 0.8s}
      .m3{animation: fall3 2.9s linear infinite 1.2s}
      .m4{animation: fall4 3.2s linear infinite 0.2s}
      .m5{animation: fall5 2.6s linear infinite 0.6s}
      .m6{animation: fall6 3.5s linear infinite 1.0s}
      .m7{animation: fall7 2.8s linear infinite 1.4s}
      .m8{animation: fall8 3.0s linear infinite 0.3s}
      .m9{animation: fall9 2.5s linear infinite 0.9s}
      .m10{animation: fall10 3.3s linear infinite 0.5s}
      .m11{animation: fall11 2.7s linear infinite 1.1s}
      .m12{animation: fall12 3.1s linear infinite 0.7s}
      .m13{animation: fall13 2.9s linear infinite 1.3s}
      .m14{animation: fall14 3.4s linear infinite 0.1s}
      .m15{animation: fall15 2.6s linear infinite 0.8s}
      .m16{animation: fall16 3.2s linear infinite 1.5s}
      .m17{animation: fall17 2.8s linear infinite 0.4s}
      .m18{animation: fall18 3.0s linear infinite 1.0s}
      .m19{animation: fall19 2.7s linear infinite 0.6s}

      @keyframes fall0  {0%{transform:translateY(-350px)}100%{transform:translateY(400px)}}
      @keyframes fall1  {0%{transform:translateY(-350px)}100%{transform:translateY(400px)}}
      @keyframes fall2  {0%{transform:translateY(-350px)}100%{transform:translateY(400px)}}
      @keyframes fall3  {0%{transform:translateY(-350px)}100%{transform:translateY(400px)}}
      @keyframes fall4  {0%{transform:translateY(-350px)}100%{transform:translateY(400px)}}
      @keyframes fall5  {0%{transform:translateY(-350px)}100%{transform:translateY(400px)}}
      @keyframes fall6  {0%{transform:translateY(-350px)}100%{transform:translateY(400px)}}
      @keyframes fall7  {0%{transform:translateY(-350px)}100%{transform:translateY(400px)}}
      @keyframes fall8  {0%{transform:translateY(-350px)}100%{transform:translateY(400px)}}
      @keyframes fall9  {0%{transform:translateY(-350px)}100%{transform:translateY(400px)}}
      @keyframes fall10 {0%{transform:translateY(-350px)}100%{transform:translateY(400px)}}
      @keyframes fall11 {0%{transform:translateY(-350px)}100%{transform:translateY(400px)}}
      @keyframes fall12 {0%{transform:translateY(-350px)}100%{transform:translateY(400px)}}
      @keyframes fall13 {0%{transform:translateY(-350px)}100%{transform:translateY(400px)}}
      @keyframes fall14 {0%{transform:translateY(-350px)}100%{transform:translateY(400px)}}
      @keyframes fall15 {0%{transform:translateY(-350px)}100%{transform:translateY(400px)}}
      @keyframes fall16 {0%{transform:translateY(-350px)}100%{transform:translateY(400px)}}
      @keyframes fall17 {0%{transform:translateY(-350px)}100%{transform:translateY(400px)}}
      @keyframes fall18 {0%{transform:translateY(-350px)}100%{transform:translateY(400px)}}
      @keyframes fall19 {0%{transform:translateY(-350px)}100%{transform:translateY(400px)}}

      /* Threat nodes falling */
      .t0{animation: tdrop0 4.0s linear infinite}
      .t1{animation: tdrop1 3.5s linear infinite 1.0s}
      .t2{animation: tdrop2 4.5s linear infinite 0.5s}
      .t3{animation: tdrop3 3.8s linear infinite 2.0s}
      .t4{animation: tdrop4 4.2s linear infinite 1.5s}
      .t5{animation: tdrop5 3.6s linear infinite 2.5s}

      @keyframes tdrop0{0%{transform:translateY(-60px);opacity:1}85%{opacity:1}100%{transform:translateY(320px);opacity:0}}
      @keyframes tdrop1{0%{transform:translateY(-60px);opacity:1}85%{opacity:1}100%{transform:translateY(320px);opacity:0}}
      @keyframes tdrop2{0%{transform:translateY(-60px);opacity:1}85%{opacity:1}100%{transform:translateY(320px);opacity:0}}
      @keyframes tdrop3{0%{transform:translateY(-60px);opacity:1}85%{opacity:1}100%{transform:translateY(320px);opacity:0}}
      @keyframes tdrop4{0%{transform:translateY(-60px);opacity:1}85%{opacity:1}100%{transform:translateY(320px);opacity:0}}
      @keyframes tdrop5{0%{transform:translateY(-60px);opacity:1}85%{opacity:1}100%{transform:translateY(320px);opacity:0}}

      /* Bullets */
      .b0{animation: bfire0 0.6s ease-in infinite 1.2s}
      .b1{animation: bfire1 0.6s ease-in infinite 2.2s}
      .b2{animation: bfire2 0.6s ease-in infinite 0.8s}
      .b3{animation: bfire3 0.6s ease-in infinite 3.0s}
      .b4{animation: bfire4 0.6s ease-in infinite 1.8s}
      .b5{animation: bfire5 0.6s ease-in infinite 3.5s}

      @keyframes bfire0{0%{transform:translate(0px,0px);opacity:1}100%{transform:translate(-130px,-180px);opacity:0}}
      @keyframes bfire1{0%{transform:translate(0px,0px);opacity:1}100%{transform:translate(120px,-160px);opacity:0}}
      @keyframes bfire2{0%{transform:translate(0px,0px);opacity:1}100%{transform:translate(-60px,-190px);opacity:0}}
      @keyframes bfire3{0%{transform:translate(0px,0px);opacity:1}100%{transform:translate(200px,-170px);opacity:0}}
      @keyframes bfire4{0%{transform:translate(0px,0px);opacity:1}100%{transform:translate(-200px,-155px);opacity:0}}
      @keyframes bfire5{0%{transform:translate(0px,0px);opacity:1}100%{transform:translate(60px,-185px);opacity:0}}

      /* Explosion rings */
      .ex0{animation: explode 0.5s ease-out infinite 1.75s}
      .ex1{animation: explode 0.5s ease-out infinite 2.75s}
      .ex2{animation: explode 0.5s ease-out infinite 1.35s}
      .ex3{animation: explode 0.5s ease-out infinite 3.55s}
      .ex4{animation: explode 0.5s ease-out infinite 2.35s}
      .ex5{animation: explode 0.5s ease-out infinite 4.05s}

      @keyframes explode{0%{r:4;opacity:1}100%{r:22;opacity:0}}

      /* Score counter pulse */
      .score-val{animation: scorePulse 0.3s ease-out infinite 1.75s}
      @keyframes scorePulse{0%{font-size:16px}50%{font-size:20px;fill:#ffffff}100%{font-size:16px}}

      /* HUD flicker */
      .hud-line{animation: hudFlicker 4s step-end infinite}
      @keyframes hudFlicker{0%,96%{opacity:1}97%{opacity:0.3}98%{opacity:1}99%{opacity:0.5}100%{opacity:1}}

      /* Terminal lines typing */
      .tl1{animation: typeLine 8s steps(40,end) infinite}
      .tl2{animation: typeLine2 8s steps(40,end) infinite 2s}
      .tl3{animation: typeLine3 8s steps(40,end) infinite 4s}
      @keyframes typeLine {0%{clip-path:inset(0 100% 0 0)}100%{clip-path:inset(0 0% 0 0)}}
      @keyframes typeLine2{0%{clip-path:inset(0 100% 0 0)}100%{clip-path:inset(0 0% 0 0)}}
      @keyframes typeLine3{0%{clip-path:inset(0 100% 0 0)}100%{clip-path:inset(0 0% 0 0)}}

      /* Uptime bar */
      .upbar{animation: uptime 10s linear infinite}
      @keyframes uptime{0%{width:200px}80%{width:30px}85%{width:200px}100%{width:200px}}

      /* Scan line */
      .scan{animation: scanMove 3s linear infinite}
      @keyframes scanMove{0%{transform:translateY(0)}100%{transform:translateY(320px)}}

      /* Cursor blink */
      .cursor{animation: blink 1s step-end infinite}
      @keyframes blink{0%,100%{opacity:1}50%{opacity:0}}

      /* Wave badge */
      .wavebadge{animation: waveUp 8s step-end infinite}
      @keyframes waveUp{0%,40%{} 41%{fill:#4499ff} 42%{fill:#2277cc} 100%{}}

      /* Combo */
      .combo{animation: comboFlash 0.3s ease-out infinite 1.75s}
      @keyframes comboFlash{0%{opacity:1}50%{opacity:0;font-size:14px}100%{opacity:1}}
    </style>
  </defs>

  <!-- Background -->
  <rect width="780" height="400" fill="#04080c" rx="12"/>

  <!-- Matrix rain columns (20 cols) -->
  <g opacity="0.35" class="mono" font-size="11" fill="#003f1a">
    <text class="m0"  x="10" >0<tspan x="10" dy="14">1</tspan><tspan x="10" dy="14">ア</tspan><tspan x="10" dy="14">A</tspan><tspan x="10" dy="14">0</tspan><tspan x="10" dy="14">イ</tspan><tspan x="10" dy="14">1</tspan><tspan x="10" dy="14">$</tspan><tspan x="10" dy="14">0</tspan><tspan x="10" dy="14">Z</tspan></text>
    <text class="m1"  x="49" >1<tspan x="49" dy="14">ウ</tspan><tspan x="49" dy="14">0</tspan><tspan x="49" dy="14">@</tspan><tspan x="49" dy="14">1</tspan><tspan x="49" dy="14">エ</tspan><tspan x="49" dy="14">b</tspan><tspan x="49" dy="14">1</tspan><tspan x="49" dy="14">%</tspan><tspan x="49" dy="14">0</tspan></text>
    <text class="m2"  x="88" >ア<tspan x="88" dy="14">0</tspan><tspan x="88" dy="14">c</tspan><tspan x="88" dy="14">1</tspan><tspan x="88" dy="14">オ</tspan><tspan x="88" dy="14">0</tspan><tspan x="88" dy="14">#</tspan><tspan x="88" dy="14">1</tspan><tspan x="88" dy="14">d</tspan><tspan x="88" dy="14">ア</tspan></text>
    <text class="m3"  x="127">0<tspan x="127" dy="14">1</tspan><tspan x="127" dy="14">カ</tspan><tspan x="127" dy="14">e</tspan><tspan x="127" dy="14">0</tspan><tspan x="127" dy="14">*</tspan><tspan x="127" dy="14">1</tspan><tspan x="127" dy="14">キ</tspan><tspan x="127" dy="14">0</tspan><tspan x="127" dy="14">f</tspan></text>
    <text class="m4"  x="166">1<tspan x="166" dy="14">0</tspan><tspan x="166" dy="14">g</tspan><tspan x="166" dy="14">ク</tspan><tspan x="166" dy="14">1</tspan><tspan x="166" dy="14">0</tspan><tspan x="166" dy="14">h</tspan><tspan x="166" dy="14">ケ</tspan><tspan x="166" dy="14">1</tspan><tspan x="166" dy="14">0</tspan></text>
    <text class="m5"  x="205">コ<tspan x="205" dy="14">1</tspan><tspan x="205" dy="14">0</tspan><tspan x="205" dy="14">i</tspan><tspan x="205" dy="14">サ</tspan><tspan x="205" dy="14">1</tspan><tspan x="205" dy="14">j</tspan><tspan x="205" dy="14">0</tspan><tspan x="205" dy="14">シ</tspan><tspan x="205" dy="14">1</tspan></text>
    <text class="m6"  x="244">0<tspan x="244" dy="14">k</tspan><tspan x="244" dy="14">ス</tspan><tspan x="244" dy="14">1</tspan><tspan x="244" dy="14">0</tspan><tspan x="244" dy="14">l</tspan><tspan x="244" dy="14">セ</tspan><tspan x="244" dy="14">0</tspan><tspan x="244" dy="14">1</tspan><tspan x="244" dy="14">m</tspan></text>
    <text class="m7"  x="283">ソ<tspan x="283" dy="14">1</tspan><tspan x="283" dy="14">0</tspan><tspan x="283" dy="14">n</tspan><tspan x="283" dy="14">タ</tspan><tspan x="283" dy="14">1</tspan><tspan x="283" dy="14">0</tspan><tspan x="283" dy="14">o</tspan><tspan x="283" dy="14">チ</tspan><tspan x="283" dy="14">1</tspan></text>
    <text class="m8"  x="322">0<tspan x="322" dy="14">p</tspan><tspan x="322" dy="14">ツ</tspan><tspan x="322" dy="14">1</tspan><tspan x="322" dy="14">0</tspan><tspan x="322" dy="14">q</tspan><tspan x="322" dy="14">テ</tspan><tspan x="322" dy="14">0</tspan><tspan x="322" dy="14">1</tspan><tspan x="322" dy="14">r</tspan></text>
    <text class="m9"  x="361">ト<tspan x="361" dy="14">1</tspan><tspan x="361" dy="14">0</tspan><tspan x="361" dy="14">s</tspan><tspan x="361" dy="14">ナ</tspan><tspan x="361" dy="14">1</tspan><tspan x="361" dy="14">t</tspan><tspan x="361" dy="14">0</tspan><tspan x="361" dy="14">ニ</tspan><tspan x="361" dy="14">1</tspan></text>
    <text class="m10" x="400">0<tspan x="400" dy="14">u</tspan><tspan x="400" dy="14">ヌ</tspan><tspan x="400" dy="14">1</tspan><tspan x="400" dy="14">0</tspan><tspan x="400" dy="14">v</tspan><tspan x="400" dy="14">ネ</tspan><tspan x="400" dy="14">0</tspan><tspan x="400" dy="14">1</tspan><tspan x="400" dy="14">w</tspan></text>
    <text class="m11" x="439">ノ<tspan x="439" dy="14">1</tspan><tspan x="439" dy="14">0</tspan><tspan x="439" dy="14">x</tspan><tspan x="439" dy="14">ハ</tspan><tspan x="439" dy="14">1</tspan><tspan x="439" dy="14">y</tspan><tspan x="439" dy="14">0</tspan><tspan x="439" dy="14">ヒ</tspan><tspan x="439" dy="14">1</tspan></text>
    <text class="m12" x="478">0<tspan x="478" dy="14">z</tspan><tspan x="478" dy="14">フ</tspan><tspan x="478" dy="14">1</tspan><tspan x="478" dy="14">0</tspan><tspan x="478" dy="14">A</tspan><tspan x="478" dy="14">ヘ</tspan><tspan x="478" dy="14">0</tspan><tspan x="478" dy="14">1</tspan><tspan x="478" dy="14">B</tspan></text>
    <text class="m13" x="517">ホ<tspan x="517" dy="14">1</tspan><tspan x="517" dy="14">0</tspan><tspan x="517" dy="14">C</tspan><tspan x="517" dy="14">マ</tspan><tspan x="517" dy="14">1</tspan><tspan x="517" dy="14">D</tspan><tspan x="517" dy="14">0</tspan><tspan x="517" dy="14">ミ</tspan><tspan x="517" dy="14">1</tspan></text>
    <text class="m14" x="556">0<tspan x="556" dy="14">E</tspan><tspan x="556" dy="14">ム</tspan><tspan x="556" dy="14">1</tspan><tspan x="556" dy="14">0</tspan><tspan x="556" dy="14">F</tspan><tspan x="556" dy="14">メ</tspan><tspan x="556" dy="14">0</tspan><tspan x="556" dy="14">1</tspan><tspan x="556" dy="14">G</tspan></text>
    <text class="m15" x="595">モ<tspan x="595" dy="14">1</tspan><tspan x="595" dy="14">0</tspan><tspan x="595" dy="14">H</tspan><tspan x="595" dy="14">ヤ</tspan><tspan x="595" dy="14">1</tspan><tspan x="595" dy="14">I</tspan><tspan x="595" dy="14">0</tspan><tspan x="595" dy="14">ユ</tspan><tspan x="595" dy="14">1</tspan></text>
    <text class="m16" x="634">0<tspan x="634" dy="14">J</tspan><tspan x="634" dy="14">ヨ</tspan><tspan x="634" dy="14">1</tspan><tspan x="634" dy="14">0</tspan><tspan x="634" dy="14">K</tspan><tspan x="634" dy="14">ラ</tspan><tspan x="634" dy="14">0</tspan><tspan x="634" dy="14">1</tspan><tspan x="634" dy="14">L</tspan></text>
    <text class="m17" x="673">リ<tspan x="673" dy="14">1</tspan><tspan x="673" dy="14">0</tspan><tspan x="673" dy="14">M</tspan><tspan x="673" dy="14">ル</tspan><tspan x="673" dy="14">1</tspan><tspan x="673" dy="14">N</tspan><tspan x="673" dy="14">0</tspan><tspan x="673" dy="14">レ</tspan><tspan x="673" dy="14">1</tspan></text>
    <text class="m18" x="712">0<tspan x="712" dy="14">O</tspan><tspan x="712" dy="14">ロ</tspan><tspan x="712" dy="14">1</tspan><tspan x="712" dy="14">0</tspan><tspan x="712" dy="14">P</tspan><tspan x="712" dy="14">ワ</tspan><tspan x="712" dy="14">0</tspan><tspan x="712" dy="14">1</tspan><tspan x="712" dy="14">Q</tspan></text>
    <text class="m19" x="751">ン<tspan x="751" dy="14">1</tspan><tspan x="751" dy="14">0</tspan><tspan x="751" dy="14">R</tspan><tspan x="751" dy="14">ヲ</tspan><tspan x="751" dy="14">1</tspan><tspan x="751" dy="14">S</tspan><tspan x="751" dy="14">0</tspan><tspan x="751" dy="14">ン</tspan><tspan x="751" dy="14">1</tspan></text>
  </g>

  <!-- Bright matrix head chars -->
  <g class="mono" font-size="12" font-weight="bold" fill="#00ff88" opacity="0.7">
    <text class="m0"  x="10" >0</text>
    <text class="m3"  x="127">1</text>
    <text class="m6"  x="244">ア</text>
    <text class="m9"  x="361">0</text>
    <text class="m12" x="478">1</text>
    <text class="m15" x="595">ン</text>
    <text class="m18" x="712">0</text>
  </g>

  <!-- Scan line -->
  <rect class="scan" x="0" y="0" width="780" height="2" fill="#00ff88" opacity="0.04" rx="1"/>

  <!-- HUD Top bar -->
  <rect x="0" y="0" width="780" height="36" fill="#060d14" rx="0"/>
  <rect x="0" y="36" width="780" height="1" fill="#0a2010"/>
  <text x="14" y="23" class="mono hud-line" font-size="12" font-weight="bold" fill="#00ff88" letter-spacing="1">// priyanshshigawan-star@mainframe ~</text>

  <!-- Stats -->
  <g class="mono" font-size="9" fill="#1a4a2a" letter-spacing="1">
    <text x="490" y="14">SCORE</text>
    <text x="555" y="14">WAVE</text>
    <text x="610" y="14">BLOCKED</text>
    <text x="690" y="14">UPTIME</text>
  </g>
  <g class="mono" font-size="15" font-weight="bold">
    <text x="490" y="30" fill="#00ff88" class="score-val">1,240</text>
    <text x="555" y="30" fill="#4499ff" class="wavebadge">3</text>
    <text x="620" y="30" fill="#ffcc00">18</text>
    <text x="690" y="30" fill="#00ff88">94%</text>
  </g>

  <!-- Arena background subtle hex grid -->
  <g stroke="#00ff88" stroke-width="0.3" fill="none" opacity="0.06">
    <polygon points="50,60 76,45 102,60 102,90 76,105 50,90"/>
    <polygon points="102,60 128,45 154,60 154,90 128,105 102,90"/>
    <polygon points="154,60 180,45 206,60 206,90 180,105 154,90"/>
    <polygon points="206,60 232,45 258,60 258,90 232,105 206,90"/>
    <polygon points="258,60 284,45 310,60 310,90 284,105 258,90"/>
    <polygon points="310,60 336,45 362,60 362,90 336,105 310,90"/>
    <polygon points="362,60 388,45 414,60 414,90 388,105 362,90"/>
    <polygon points="414,60 440,45 466,60 466,90 440,105 414,90"/>
    <polygon points="466,60 492,45 518,60 518,90 492,105 466,90"/>
    <polygon points="518,60 544,45 570,60 570,90 544,105 518,90"/>
    <polygon points="570,60 596,45 622,60 622,90 596,105 570,90"/>
    <polygon points="622,60 648,45 674,60 674,90 648,105 622,90"/>
    <polygon points="674,60 700,45 726,60 726,90 700,105 674,90"/>
    <polygon points="76,105 102,90 128,105 128,135 102,150 76,135"/>
    <polygon points="180,105 206,90 232,105 232,135 206,150 180,135"/>
    <polygon points="284,105 310,90 336,105 336,135 310,150 284,135"/>
    <polygon points="388,105 414,90 440,105 440,135 414,150 388,135"/>
    <polygon points="492,105 518,90 544,105 544,135 518,150 492,135"/>
    <polygon points="596,105 622,90 648,105 648,135 622,150 596,135"/>
    <polygon points="700,105 726,90 752,105 752,135 726,150 700,135"/>
    <polygon points="128,150 154,135 180,150 180,180 154,195 128,180"/>
    <polygon points="232,150 258,135 284,150 284,180 258,195 232,180"/>
    <polygon points="336,150 362,135 388,150 388,180 362,195 336,180"/>
    <polygon points="440,150 466,135 492,150 492,180 466,195 440,180"/>
    <polygon points="544,150 570,135 596,150 596,180 570,195 544,180"/>
    <polygon points="648,150 674,135 700,150 700,180 674,195 648,180"/>
  </g>

  <!-- Connection lines from threats to server -->
  <line x1="180" y1="130" x2="390" y2="335" stroke="#ff4455" stroke-width="0.5" stroke-dasharray="4,6" opacity="0.3" class="t0"/>
  <line x1="420" y1="90"  x2="390" y2="335" stroke="#ff8800" stroke-width="0.5" stroke-dasharray="4,6" opacity="0.3" class="t1"/>
  <line x1="90"  y1="160" x2="390" y2="335" stroke="#cc44ff" stroke-width="0.5" stroke-dasharray="4,6" opacity="0.3" class="t2"/>
  <line x1="590" y1="110" x2="390" y2="335" stroke="#ff22aa" stroke-width="0.5" stroke-dasharray="4,6" opacity="0.3" class="t3"/>
  <line x1="310" y1="75"  x2="390" y2="335" stroke="#ffcc00" stroke-width="0.5" stroke-dasharray="4,6" opacity="0.3" class="t4"/>
  <line x1="670" y1="145" x2="390" y2="335" stroke="#ff2222" stroke-width="0.5" stroke-dasharray="4,6" opacity="0.3" class="t5"/>

  <!-- THREAT 0: SQL INJECT (diamond, red) -->
  <g class="t0" transform="translate(155,110)">
    <polygon points="0,-20 20,0 0,20 -20,0" fill="#ff445522" stroke="#ff4455" stroke-width="1.5"/>
    <text x="0" y="33"  class="mono" font-size="9" font-weight="bold" fill="#ff4455" text-anchor="middle">SQL INJECT</text>
    <text x="0" y="44"  class="mono" font-size="8" fill="#ff445577" text-anchor="middle">&gt;sqlmap --flush</text>
  </g>

  <!-- THREAT 1: DDOS (hexagon, orange) -->
  <g class="t1" transform="translate(420,70)">
    <polygon points="0,-22 19,-11 19,11 0,22 -19,11 -19,-11" fill="#ff880022" stroke="#ff8800" stroke-width="1.5"/>
    <text x="0" y="35"  class="mono" font-size="9" font-weight="bold" fill="#ff8800" text-anchor="middle">DDOS</text>
    <text x="0" y="46"  class="mono" font-size="8" fill="#ff880077" text-anchor="middle">&gt;ddosguard --on</text>
  </g>

  <!-- THREAT 2: XSS (diamond, purple) -->
  <g class="t2" transform="translate(80,140)">
    <polygon points="0,-18 18,0 0,18 -18,0" fill="#cc44ff22" stroke="#cc44ff" stroke-width="1.5"/>
    <text x="0" y="31"  class="mono" font-size="9" font-weight="bold" fill="#cc44ff" text-anchor="middle">XSS</text>
    <text x="0" y="42"  class="mono" font-size="8" fill="#cc44ff77" text-anchor="middle">&gt;xss --sanitize</text>
  </g>

  <!-- THREAT 3: RANSOMWARE (square, pink) -->
  <g class="t3" transform="translate(590,90)">
    <rect x="-20" y="-20" width="40" height="40" fill="#ff22aa22" stroke="#ff22aa" stroke-width="1.5" rx="3"/>
    <text x="0" y="33"  class="mono" font-size="9" font-weight="bold" fill="#ff22aa" text-anchor="middle">RANSOMWARE</text>
    <text x="0" y="44"  class="mono" font-size="8" fill="#ff22aa77" text-anchor="middle">&gt;decrypt --force</text>
  </g>

  <!-- THREAT 4: PHISHING (triangle, yellow) -->
  <g class="t4" transform="translate(310,55)">
    <polygon points="0,-20 20,17 -20,17" fill="#ffcc0022" stroke="#ffcc00" stroke-width="1.5"/>
    <text x="0" y="32"  class="mono" font-size="9" font-weight="bold" fill="#ffcc00" text-anchor="middle">PHISHING</text>
    <text x="0" y="43"  class="mono" font-size="8" fill="#ffcc0077" text-anchor="middle">&gt;phish --kill</text>
  </g>

  <!-- THREAT 5: ZERO-DAY (circle, red) -->
  <g class="t5" transform="translate(668,125)">
    <circle r="21" fill="#ff222222" stroke="#ff2222" stroke-width="1.5"/>
    <text x="0" y="35"  class="mono" font-size="9" font-weight="bold" fill="#ff2222" text-anchor="middle">ZERO-DAY</text>
    <text x="0" y="46"  class="mono" font-size="8" fill="#ff222277" text-anchor="middle">&gt;patch --zero</text>
  </g>

  <!-- BULLETS fired from server -->
  <circle class="b0" cx="390" cy="335" r="4" fill="#00ff88" opacity="0.9"/>
  <circle class="b1" cx="390" cy="335" r="4" fill="#4499ff" opacity="0.9"/>
  <circle class="b2" cx="390" cy="335" r="3" fill="#ffcc00" opacity="0.9"/>
  <circle class="b3" cx="390" cy="335" r="4" fill="#00ff88" opacity="0.9"/>
  <circle class="b4" cx="390" cy="335" r="3" fill="#cc44ff" opacity="0.9"/>
  <circle class="b5" cx="390" cy="335" r="4" fill="#4499ff" opacity="0.9"/>

  <!-- Explosion rings at threat positions -->
  <circle class="ex0" cx="180" cy="200" fill="none" stroke="#ff4455" stroke-width="1.5" opacity="0"/>
  <circle class="ex1" cx="420" cy="190" fill="none" stroke="#ff8800" stroke-width="1.5" opacity="0"/>
  <circle class="ex2" cx="90"  cy="210" fill="none" stroke="#cc44ff" stroke-width="1.5" opacity="0"/>
  <circle class="ex3" cx="590" cy="200" fill="none" stroke="#ff22aa" stroke-width="1.5" opacity="0"/>
  <circle class="ex4" cx="310" cy="185" fill="none" stroke="#ffcc00" stroke-width="1.5" opacity="0"/>
  <circle class="ex5" cx="668" cy="205" fill="none" stroke="#ff2222" stroke-width="1.5" opacity="0"/>

  <!-- SERVER at bottom center -->
  <rect x="352" y="315" width="76" height="40" fill="#051a0f" stroke="#1d9e75" stroke-width="1.5" rx="5"/>
  <rect x="362" y="323" width="9"  height="6"  fill="#1d9e75"/>
  <rect x="362" y="333" width="9"  height="6"  fill="#1d9e75"/>
  <rect x="362" y="343" width="9"  height="6"  fill="#1d9e75"/>
  <circle cx="408" cy="326" r="3.5" fill="#00ff88"/>
  <circle cx="408" cy="336" r="3.5" fill="#00ff88"/>
  <circle cx="408" cy="346" r="3.5" fill="#00aa44"/>
  <text x="390" y="365" class="mono" font-size="8" fill="#1a4a2a" text-anchor="middle">[ SERVER ]</text>

  <!-- Uptime bar -->
  <rect x="270" y="320" width="70" height="5" fill="#0a1e10" rx="2"/>
  <rect x="270" y="320" class="upbar" height="5" fill="#00ff88" rx="2"/>

  <!-- HP rings around server -->
  <circle cx="390" cy="335" r="55" fill="none" stroke="#00ff88" stroke-width="0.5" stroke-dasharray="3,5" opacity="0.2"/>
  <circle cx="390" cy="335" r="75" fill="none" stroke="#00ff88" stroke-width="0.3" stroke-dasharray="2,7" opacity="0.1"/>

  <!-- Terminal log at bottom -->
  <rect x="0" y="372" width="780" height="28" fill="#03060a"/>
  <rect x="0" y="372" width="780" height="1"  fill="#0a2010"/>
  <text x="12" y="383" class="mono tl1" font-size="10" fill="#00ff88">&gt; [+] SQL INJECT neutralized via sqlmap --flush | +15 pts | combo x3</text>
  <text x="12" y="396" class="mono tl2" font-size="10" fill="#1a5a30">&gt; [+] RANSOMWARE blocked via decrypt --force  | +30 pts | wave 3</text>
  <text x="12" y="396" class="mono tl3" font-size="10" fill="#ff4444">&gt; [!] ZERO-DAY breach detected — initiating patch --zero sequence...</text>

  <!-- Bottom status bar -->
  <rect x="0" y="384" width="780" height="16" fill="#060d14"/>
  <rect x="0" y="384" width="780" height="1"  fill="#0a2010"/>
  <text x="12" y="395" class="mono" font-size="9" fill="#1a4a2a" letter-spacing="1">ETHICAL HACKER | CTF PLAYER | PENETRATION TESTER | INDIA</text>
  <text x="650" y="395" class="mono cursor" font-size="9" fill="#00ff88">█</text>

  <!-- Floating score labels -->
  <text x="160" y="175" class="mono" font-size="10" font-weight="bold" fill="#ff4455" opacity="0.8">+15 pts</text>
  <text x="400" y="155" class="mono" font-size="10" font-weight="bold" fill="#ff8800" opacity="0.8">+20 pts</text>
  <text x="590" y="165" class="mono" font-size="10" font-weight="bold" fill="#ff22aa" opacity="0.8">+30 pts</text>
</svg>
