<svg width="780" height="220" viewBox="0 0 780 220" xmlns="http://www.w3.org/2000/svg">
<title>Cyber Pac-Man Grid — priyanshshigawan-star</title>
<desc>Pac-Man moves through a GitHub contribution grid eating cyber threats like SQL, DDOS, XSS and Ransomware</desc>

<defs>
  <style>
    .mono { font-family: 'Courier New', Courier, monospace; }

    /* PAC-MAN mouth open/close */
    @keyframes mouthChew {
      0%,100% { d: path("M14,14 L26,6 A13,13 0 1,1 26,22 Z"); }
      50%      { d: path("M14,14 L27,14 A13,13 0 1,1 14,14 Z"); }
    }
    @keyframes mouthChewL {
      0%,100% { d: path("M14,14 L2,6  A13,13 0 1,0 2,22  Z"); }
      50%      { d: path("M14,14 L1,14 A13,13 0 1,0 14,14 Z"); }
    }
    @keyframes mouthChewD {
      0%,100% { d: path("M14,14 L6,2  A13,13 0 1,0 22,2  Z"); }
      50%      { d: path("M14,14 L14,1 A13,13 0 1,0 14,14 Z"); }
    }

    /* Pac-Man travel path — row by row snake */
    /* Row 0: left→right */
    @keyframes row0 {
      0%   { transform: translate(4px,  8px); }
      12.5%{ transform: translate(724px, 8px); }
      12.6%{ transform: translate(724px, 8px); opacity:0; }
      12.7%{ transform: translate(724px, 38px); opacity:1; }
      /* Row 1: right→left */
      25%  { transform: translate(4px,  38px); }
      25.1%{ transform: translate(4px,  38px); opacity:0; }
      25.2%{ transform: translate(4px,  68px); opacity:1; }
      /* Row 2: left→right */
      37.5%{ transform: translate(724px, 68px); }
      37.6%{ transform: translate(724px, 68px); opacity:0; }
      37.7%{ transform: translate(724px, 98px); opacity:1; }
      /* Row 3: right→left */
      50%  { transform: translate(4px,  98px); }
      50.1%{ transform: translate(4px,  98px); opacity:0; }
      50.2%{ transform: translate(4px,  128px); opacity:1; }
      /* Row 4: left→right */
      62.5%{ transform: translate(724px,128px); }
      62.6%{ transform: translate(724px,128px); opacity:0; }
      62.7%{ transform: translate(724px,158px); opacity:1; }
      /* Row 5: right→left */
      75%  { transform: translate(4px,  158px); }
      75.1%{ transform: translate(4px,  158px); opacity:0; }
      75.2%{ transform: translate(4px,  188px); opacity:1; }
      /* Row 6: left→right */
      87.5%{ transform: translate(724px,188px); }
      87.6%{ opacity:0; }
      87.7%{ transform: translate(4px,  8px); opacity:1; }
      100% { transform: translate(4px,  8px); }
    }

    /* Alternating direction mouths */
    .pac { animation: row0 8s linear infinite; }

    /* Right-facing mouth */
    .mouth-r {
      animation: mouthChew 0.25s ease-in-out infinite;
    }
    /* Left-facing mouth */
    .mouth-l {
      animation: mouthChewL 0.25s ease-in-out infinite;
    }

    /* Threats floating/pulsing */
    @keyframes tpulse {
      0%,100% { opacity: 0.85; transform: scale(1);   }
      50%      { opacity: 1;    transform: scale(1.1); }
    }
    .tp0  { animation: tpulse 1.1s ease-in-out infinite 0.0s; }
    .tp1  { animation: tpulse 1.3s ease-in-out infinite 0.2s; }
    .tp2  { animation: tpulse 0.9s ease-in-out infinite 0.4s; }
    .tp3  { animation: tpulse 1.2s ease-in-out infinite 0.6s; }
    .tp4  { animation: tpulse 1.0s ease-in-out infinite 0.8s; }
    .tp5  { animation: tpulse 1.4s ease-in-out infinite 0.1s; }
    .tp6  { animation: tpulse 0.95s ease-in-out infinite 0.3s; }
    .tp7  { animation: tpulse 1.15s ease-in-out infinite 0.5s; }
    .tp8  { animation: tpulse 1.25s ease-in-out infinite 0.7s; }
    .tp9  { animation: tpulse 1.05s ease-in-out infinite 0.9s; }
    .tp10 { animation: tpulse 1.35s ease-in-out infinite 0.15s; }
    .tp11 { animation: tpulse 0.85s ease-in-out infinite 0.45s; }

    /* Dots twinkle */
    @keyframes twinkle {
      0%,100%{ opacity:0.25; } 50%{ opacity:0.6; }
    }
    .dtw { animation: twinkle 2s ease-in-out infinite; }

    /* Score pop */
    @keyframes scorePop {
      0%  { opacity:0; transform:translateY(0px);  }
      20% { opacity:1; transform:translateY(-4px); }
      80% { opacity:1; transform:translateY(-12px);}
      100%{ opacity:0; transform:translateY(-16px);}
    }
    .sp0  { animation: scorePop 1s ease-out infinite 0.9s;  }
    .sp1  { animation: scorePop 1s ease-out infinite 1.8s;  }
    .sp2  { animation: scorePop 1s ease-out infinite 2.5s;  }
    .sp3  { animation: scorePop 1s ease-out infinite 3.4s;  }
    .sp4  { animation: scorePop 1s ease-out infinite 4.3s;  }
    .sp5  { animation: scorePop 1s ease-out infinite 5.0s;  }
    .sp6  { animation: scorePop 1s ease-out infinite 5.9s;  }
    .sp7  { animation: scorePop 1s ease-out infinite 6.8s;  }
    .sp8  { animation: scorePop 1s ease-out infinite 0.4s;  }
    .sp9  { animation: scorePop 1s ease-out infinite 1.3s;  }
    .sp10 { animation: scorePop 1s ease-out infinite 3.0s;  }
    .sp11 { animation: scorePop 1s ease-out infinite 4.7s;  }

    /* Bar scan */
    @keyframes barScan {
      0%   { width:0px;   }
      45%  { width:680px; }
      50%  { width:680px; }
      95%  { width:0px;   }
      100% { width:0px;   }
    }
    .barscan { animation: barScan 4s ease-in-out infinite; }

    /* Score counter */
    @keyframes scoreCount {
      0%  { } 12%{ } 25%{ } 37%{ } 50%{ } 62%{ } 75%{ } 87%{ } 100%{ }
    }

    /* HUD score increment */
    @keyframes hud1 { 0%,8%{opacity:1} 9%,100%{opacity:0} }
    @keyframes hud2 { 9%,17%{opacity:1} 0%,8%,18%,100%{opacity:0} }
    @keyframes hud3 { 18%,26%{opacity:1} 0%,17%,27%,100%{opacity:0} }
    @keyframes hud4 { 27%,35%{opacity:1} 0%,26%,36%,100%{opacity:0} }
    @keyframes hud5 { 36%,44%{opacity:1} 0%,35%,45%,100%{opacity:0} }
    @keyframes hud6 { 45%,53%{opacity:1} 0%,44%,54%,100%{opacity:0} }
    @keyframes hud7 { 54%,62%{opacity:1} 0%,53%,63%,100%{opacity:0} }
    @keyframes hud8 { 63%,71%{opacity:1} 0%,62%,72%,100%{opacity:0} }
    @keyframes hud9 { 72%,80%{opacity:1} 0%,71%,81%,100%{opacity:0} }
    @keyframes hud10{ 81%,89%{opacity:1} 0%,80%,90%,100%{opacity:0} }
    @keyframes hud11{ 90%,100%{opacity:1} 0%,89%{opacity:0} }
    .sc1  { animation: hud1  8s linear infinite; }
    .sc2  { animation: hud2  8s linear infinite; }
    .sc3  { animation: hud3  8s linear infinite; }
    .sc4  { animation: hud4  8s linear infinite; }
    .sc5  { animation: hud5  8s linear infinite; }
    .sc6  { animation: hud6  8s linear infinite; }
    .sc7  { animation: hud7  8s linear infinite; }
    .sc8  { animation: hud8  8s linear infinite; }
    .sc9  { animation: hud9  8s linear infinite; }
    .sc10 { animation: hud10 8s linear infinite; }
    .sc11 { animation: hud11 8s linear infinite; }

    /* cmd text cycle */
    @keyframes cmd1 { 0%,33%{opacity:1} 34%,100%{opacity:0} }
    @keyframes cmd2 { 0%,33%{opacity:0} 34%,66%{opacity:1} 67%,100%{opacity:0} }
    @keyframes cmd3 { 0%,66%{opacity:0} 67%,100%{opacity:1} }
    .cmd1 { animation: cmd1 6s linear infinite; }
    .cmd2 { animation: cmd2 6s linear infinite; }
    .cmd3 { animation: cmd3 6s linear infinite; }

    /* Eaten flash */
    @keyframes eatFlash {
      0%,100%{ opacity:1 } 50%{ opacity:0.15 }
    }
  </style>
</defs>

<!-- ── BACKGROUND ── -->
<rect width="780" height="220" fill="#0d1117" rx="12"/>

<!-- ── TOP HUD BAR ── -->
<rect x="0" y="0" width="780" height="28" fill="#060d0a" rx="0"/>
<rect x="0" y="24" width="780" height="1" fill="#0a2010" rx="0"/>
<rect x="0" y="0" width="780" height="12" fill="#060d0a" rx="12"/>

<!-- Window dots -->
<circle cx="14" cy="13" r="4.5" fill="#ff5f57"/>
<circle cx="27" cy="13" r="4.5" fill="#febc2e"/>
<circle cx="40" cy="13" r="4.5" fill="#28c840"/>
<text x="55" y="18" class="mono" font-size="10" fill="#00ff88" letter-spacing="1">priyanshshigawan-star — cyber activity grid</text>

<!-- HUD stats right -->
<!-- Score labels -->
<text x="530" y="11" class="mono" font-size="7" fill="#3a5a3a" letter-spacing="1">SCORE</text>
<text x="530" y="22" class="mono sc1"  font-size="12" font-weight="bold" fill="#ffee00">020</text>
<text x="530" y="22" class="mono sc2"  font-size="12" font-weight="bold" fill="#ffee00">040</text>
<text x="530" y="22" class="mono sc3"  font-size="12" font-weight="bold" fill="#ffee00">060</text>
<text x="530" y="22" class="mono sc4"  font-size="12" font-weight="bold" fill="#ffee00">080</text>
<text x="530" y="22" class="mono sc5"  font-size="12" font-weight="bold" fill="#ffee00">100</text>
<text x="530" y="22" class="mono sc6"  font-size="12" font-weight="bold" fill="#ffee00">120</text>
<text x="530" y="22" class="mono sc7"  font-size="12" font-weight="bold" fill="#ffee00">140</text>
<text x="530" y="22" class="mono sc8"  font-size="12" font-weight="bold" fill="#ffee00">160</text>
<text x="530" y="22" class="mono sc9"  font-size="12" font-weight="bold" fill="#ffee00">180</text>
<text x="530" y="22" class="mono sc10" font-size="12" font-weight="bold" fill="#ffee00">200</text>
<text x="530" y="22" class="mono sc11" font-size="12" font-weight="bold" fill="#ffee00">220</text>

<text x="600" y="11" class="mono" font-size="7" fill="#3a5a3a" letter-spacing="1">LEVEL</text>
<text x="600" y="22" class="mono" font-size="12" font-weight="bold" fill="#cc44ff">03</text>

<text x="660" y="11" class="mono" font-size="7" fill="#3a5a3a" letter-spacing="1">LIVES</text>
<text x="660" y="22" class="mono" font-size="12" font-weight="bold" fill="#ffee00">●●●</text>

<text x="720" y="11" class="mono" font-size="7" fill="#3a5a3a" letter-spacing="1">EATEN</text>
<text x="720" y="22" class="mono" font-size="12" font-weight="bold" fill="#00ff88">11</text>

<!-- ── CONTRIBUTION GRID ── -->
<!-- Row 0 (y=32) — 52 cols, cell=12, gap=2 -->
<g>
<!-- Using rect groups per row for the contribution grid cells -->
<!-- Row 0 -->
<g fill="#0e4429">
<rect x="4"   y="32" width="12" height="12" rx="2"/>
<rect x="18"  y="32" width="12" height="12" rx="2"/>
<rect x="46"  y="32" width="12" height="12" rx="2"/>
<rect x="88"  y="32" width="12" height="12" rx="2"/>
<rect x="116" y="32" width="12" height="12" rx="2"/>
<rect x="172" y="32" width="12" height="12" rx="2"/>
<rect x="214" y="32" width="12" height="12" rx="2"/>
<rect x="284" y="32" width="12" height="12" rx="2"/>
<rect x="326" y="32" width="12" height="12" rx="2"/>
<rect x="382" y="32" width="12" height="12" rx="2"/>
<rect x="410" y="32" width="12" height="12" rx="2"/>
<rect x="452" y="32" width="12" height="12" rx="2"/>
<rect x="494" y="32" width="12" height="12" rx="2"/>
<rect x="550" y="32" width="12" height="12" rx="2"/>
<rect x="606" y="32" width="12" height="12" rx="2"/>
<rect x="648" y="32" width="12" height="12" rx="2"/>
<rect x="704" y="32" width="12" height="12" rx="2"/>
</g>
<g fill="#006d32">
<rect x="32"  y="32" width="12" height="12" rx="2"/>
<rect x="60"  y="32" width="12" height="12" rx="2"/>
<rect x="102" y="32" width="12" height="12" rx="2"/>
<rect x="130" y="32" width="12" height="12" rx="2"/>
<rect x="158" y="32" width="12" height="12" rx="2"/>
<rect x="200" y="32" width="12" height="12" rx="2"/>
<rect x="242" y="32" width="12" height="12" rx="2"/>
<rect x="270" y="32" width="12" height="12" rx="2"/>
<rect x="298" y="32" width="12" height="12" rx="2"/>
<rect x="340" y="32" width="12" height="12" rx="2"/>
<rect x="368" y="32" width="12" height="12" rx="2"/>
<rect x="424" y="32" width="12" height="12" rx="2"/>
<rect x="480" y="32" width="12" height="12" rx="2"/>
<rect x="522" y="32" width="12" height="12" rx="2"/>
<rect x="564" y="32" width="12" height="12" rx="2"/>
<rect x="620" y="32" width="12" height="12" rx="2"/>
<rect x="676" y="32" width="12" height="12" rx="2"/>
<rect x="718" y="32" width="12" height="12" rx="2"/>
</g>
<g fill="#26a641">
<rect x="74"  y="32" width="12" height="12" rx="2"/>
<rect x="144" y="32" width="12" height="12" rx="2"/>
<rect x="186" y="32" width="12" height="12" rx="2"/>
<rect x="228" y="32" width="12" height="12" rx="2"/>
<rect x="256" y="32" width="12" height="12" rx="2"/>
<rect x="312" y="32" width="12" height="12" rx="2"/>
<rect x="354" y="32" width="12" height="12" rx="2"/>
<rect x="396" y="32" width="12" height="12" rx="2"/>
<rect x="438" y="32" width="12" height="12" rx="2"/>
<rect x="466" y="32" width="12" height="12" rx="2"/>
<rect x="508" y="32" width="12" height="12" rx="2"/>
<rect x="536" y="32" width="12" height="12" rx="2"/>
<rect x="578" y="32" width="12" height="12" rx="2"/>
<rect x="592" y="32" width="12" height="12" rx="2"/>
<rect x="634" y="32" width="12" height="12" rx="2"/>
<rect x="662" y="32" width="12" height="12" rx="2"/>
<rect x="690" y="32" width="12" height="12" rx="2"/>
<rect x="732" y="32" width="12" height="12" rx="2"/>
</g>
<g fill="#39d353">
<rect x="746" y="32" width="12" height="12" rx="2"/>
<rect x="760" y="32" width="12" height="12" rx="2"/>
</g>
<!-- Empty cells -->
<g fill="#161b22">
<rect x="4"   y="46" width="754" height="1" opacity="0"/>
</g>

<!-- Row 1 -->
<g fill="#0e4429">
<rect x="4"   y="46" width="12" height="12" rx="2"/>
<rect x="32"  y="46" width="12" height="12" rx="2"/>
<rect x="88"  y="46" width="12" height="12" rx="2"/>
<rect x="144" y="46" width="12" height="12" rx="2"/>
<rect x="200" y="46" width="12" height="12" rx="2"/>
<rect x="256" y="46" width="12" height="12" rx="2"/>
<rect x="312" y="46" width="12" height="12" rx="2"/>
<rect x="368" y="46" width="12" height="12" rx="2"/>
<rect x="424" y="46" width="12" height="12" rx="2"/>
<rect x="480" y="46" width="12" height="12" rx="2"/>
<rect x="536" y="46" width="12" height="12" rx="2"/>
<rect x="592" y="46" width="12" height="12" rx="2"/>
<rect x="648" y="46" width="12" height="12" rx="2"/>
<rect x="704" y="46" width="12" height="12" rx="2"/>
<rect x="746" y="46" width="12" height="12" rx="2"/>
</g>
<g fill="#006d32">
<rect x="18"  y="46" width="12" height="12" rx="2"/>
<rect x="60"  y="46" width="12" height="12" rx="2"/>
<rect x="102" y="46" width="12" height="12" rx="2"/>
<rect x="158" y="46" width="12" height="12" rx="2"/>
<rect x="214" y="46" width="12" height="12" rx="2"/>
<rect x="270" y="46" width="12" height="12" rx="2"/>
<rect x="326" y="46" width="12" height="12" rx="2"/>
<rect x="382" y="46" width="12" height="12" rx="2"/>
<rect x="438" y="46" width="12" height="12" rx="2"/>
<rect x="494" y="46" width="12" height="12" rx="2"/>
<rect x="550" y="46" width="12" height="12" rx="2"/>
<rect x="606" y="46" width="12" height="12" rx="2"/>
<rect x="662" y="46" width="12" height="12" rx="2"/>
<rect x="718" y="46" width="12" height="12" rx="2"/>
<rect x="760" y="46" width="12" height="12" rx="2"/>
</g>
<g fill="#26a641">
<rect x="46"  y="46" width="12" height="12" rx="2"/>
<rect x="74"  y="46" width="12" height="12" rx="2"/>
<rect x="116" y="46" width="12" height="12" rx="2"/>
<rect x="130" y="46" width="12" height="12" rx="2"/>
<rect x="172" y="46" width="12" height="12" rx="2"/>
<rect x="186" y="46" width="12" height="12" rx="2"/>
<rect x="228" y="46" width="12" height="12" rx="2"/>
<rect x="242" y="46" width="12" height="12" rx="2"/>
<rect x="284" y="46" width="12" height="12" rx="2"/>
<rect x="298" y="46" width="12" height="12" rx="2"/>
<rect x="340" y="46" width="12" height="12" rx="2"/>
<rect x="354" y="46" width="12" height="12" rx="2"/>
<rect x="396" y="46" width="12" height="12" rx="2"/>
<rect x="410" y="46" width="12" height="12" rx="2"/>
<rect x="452" y="46" width="12" height="12" rx="2"/>
<rect x="466" y="46" width="12" height="12" rx="2"/>
<rect x="508" y="46" width="12" height="12" rx="2"/>
<rect x="522" y="46" width="12" height="12" rx="2"/>
<rect x="564" y="46" width="12" height="12" rx="2"/>
<rect x="578" y="46" width="12" height="12" rx="2"/>
<rect x="620" y="46" width="12" height="12" rx="2"/>
<rect x="634" y="46" width="12" height="12" rx="2"/>
<rect x="676" y="46" width="12" height="12" rx="2"/>
<rect x="690" y="46" width="12" height="12" rx="2"/>
<rect x="732" y="46" width="12" height="12" rx="2"/>
</g>
<g fill="#39d353">
<rect x="774" y="46" width="12" height="12" rx="2"/>
</g>

<!-- Rows 2-6: condensed pattern -->
<g fill="#0e4429">
<rect x="4"   y="60" width="12" height="12" rx="2"/><rect x="46"  y="60" width="12" height="12" rx="2"/>
<rect x="102" y="60" width="12" height="12" rx="2"/><rect x="158" y="60" width="12" height="12" rx="2"/>
<rect x="214" y="60" width="12" height="12" rx="2"/><rect x="270" y="60" width="12" height="12" rx="2"/>
<rect x="326" y="60" width="12" height="12" rx="2"/><rect x="382" y="60" width="12" height="12" rx="2"/>
<rect x="438" y="60" width="12" height="12" rx="2"/><rect x="494" y="60" width="12" height="12" rx="2"/>
<rect x="550" y="60" width="12" height="12" rx="2"/><rect x="606" y="60" width="12" height="12" rx="2"/>
<rect x="662" y="60" width="12" height="12" rx="2"/><rect x="718" y="60" width="12" height="12" rx="2"/>
<rect x="774" y="60" width="12" height="12" rx="2"/>
</g>
<g fill="#006d32">
<rect x="18"  y="60" width="12" height="12" rx="2"/><rect x="60"  y="60" width="12" height="12" rx="2"/>
<rect x="116" y="60" width="12" height="12" rx="2"/><rect x="172" y="60" width="12" height="12" rx="2"/>
<rect x="228" y="60" width="12" height="12" rx="2"/><rect x="284" y="60" width="12" height="12" rx="2"/>
<rect x="340" y="60" width="12" height="12" rx="2"/><rect x="396" y="60" width="12" height="12" rx="2"/>
<rect x="452" y="60" width="12" height="12" rx="2"/><rect x="508" y="60" width="12" height="12" rx="2"/>
<rect x="564" y="60" width="12" height="12" rx="2"/><rect x="620" y="60" width="12" height="12" rx="2"/>
<rect x="676" y="60" width="12" height="12" rx="2"/><rect x="732" y="60" width="12" height="12" rx="2"/>
</g>
<g fill="#26a641">
<rect x="32"  y="60" width="12" height="12" rx="2"/><rect x="74"  y="60" width="12" height="12" rx="2"/>
<rect x="130" y="60" width="12" height="12" rx="2"/><rect x="186" y="60" width="12" height="12" rx="2"/>
<rect x="242" y="60" width="12" height="12" rx="2"/><rect x="298" y="60" width="12" height="12" rx="2"/>
<rect x="354" y="60" width="12" height="12" rx="2"/><rect x="410" y="60" width="12" height="12" rx="2"/>
<rect x="466" y="60" width="12" height="12" rx="2"/><rect x="522" y="60" width="12" height="12" rx="2"/>
<rect x="578" y="60" width="12" height="12" rx="2"/><rect x="634" y="60" width="12" height="12" rx="2"/>
<rect x="690" y="60" width="12" height="12" rx="2"/><rect x="746" y="60" width="12" height="12" rx="2"/>
</g>
<g fill="#39d353">
<rect x="88"  y="60" width="12" height="12" rx="2"/><rect x="144" y="60" width="12" height="12" rx="2"/>
<rect x="200" y="60" width="12" height="12" rx="2"/><rect x="760" y="60" width="12" height="12" rx="2"/>
</g>

<!-- Row 3 -->
<g fill="#0e4429">
<rect x="18"  y="74" width="12" height="12" rx="2"/><rect x="74"  y="74" width="12" height="12" rx="2"/>
<rect x="130" y="74" width="12" height="12" rx="2"/><rect x="186" y="74" width="12" height="12" rx="2"/>
<rect x="242" y="74" width="12" height="12" rx="2"/><rect x="298" y="74" width="12" height="12" rx="2"/>
<rect x="354" y="74" width="12" height="12" rx="2"/><rect x="410" y="74" width="12" height="12" rx="2"/>
<rect x="466" y="74" width="12" height="12" rx="2"/><rect x="522" y="74" width="12" height="12" rx="2"/>
<rect x="578" y="74" width="12" height="12" rx="2"/><rect x="634" y="74" width="12" height="12" rx="2"/>
<rect x="690" y="74" width="12" height="12" rx="2"/><rect x="746" y="74" width="12" height="12" rx="2"/>
</g>
<g fill="#006d32">
<rect x="4"   y="74" width="12" height="12" rx="2"/><rect x="60"  y="74" width="12" height="12" rx="2"/>
<rect x="116" y="74" width="12" height="12" rx="2"/><rect x="172" y="74" width="12" height="12" rx="2"/>
<rect x="228" y="74" width="12" height="12" rx="2"/><rect x="284" y="74" width="12" height="12" rx="2"/>
<rect x="340" y="74" width="12" height="12" rx="2"/><rect x="396" y="74" width="12" height="12" rx="2"/>
<rect x="452" y="74" width="12" height="12" rx="2"/><rect x="508" y="74" width="12" height="12" rx="2"/>
<rect x="564" y="74" width="12" height="12" rx="2"/><rect x="620" y="74" width="12" height="12" rx="2"/>
<rect x="676" y="74" width="12" height="12" rx="2"/><rect x="732" y="74" width="12" height="12" rx="2"/>
</g>
<g fill="#26a641">
<rect x="32"  y="74" width="12" height="12" rx="2"/><rect x="88"  y="74" width="12" height="12" rx="2"/>
<rect x="144" y="74" width="12" height="12" rx="2"/><rect x="200" y="74" width="12" height="12" rx="2"/>
<rect x="256" y="74" width="12" height="12" rx="2"/><rect x="312" y="74" width="12" height="12" rx="2"/>
<rect x="368" y="74" width="12" height="12" rx="2"/><rect x="424" y="74" width="12" height="12" rx="2"/>
<rect x="480" y="74" width="12" height="12" rx="2"/><rect x="536" y="74" width="12" height="12" rx="2"/>
<rect x="592" y="74" width="12" height="12" rx="2"/><rect x="648" y="74" width="12" height="12" rx="2"/>
<rect x="704" y="74" width="12" height="12" rx="2"/><rect x="760" y="74" width="12" height="12" rx="2"/>
</g>
<g fill="#39d353">
<rect x="46"  y="74" width="12" height="12" rx="2"/><rect x="102" y="74" width="12" height="12" rx="2"/>
<rect x="774" y="74" width="12" height="12" rx="2"/>
</g>

<!-- Row 4 -->
<g fill="#0e4429">
<rect x="32"  y="88" width="12" height="12" rx="2"/><rect x="74"  y="88" width="12" height="12" rx="2"/>
<rect x="116" y="88" width="12" height="12" rx="2"/><rect x="186" y="88" width="12" height="12" rx="2"/>
<rect x="242" y="88" width="12" height="12" rx="2"/><rect x="312" y="88" width="12" height="12" rx="2"/>
<rect x="368" y="88" width="12" height="12" rx="2"/><rect x="424" y="88" width="12" height="12" rx="2"/>
<rect x="480" y="88" width="12" height="12" rx="2"/><rect x="536" y="88" width="12" height="12" rx="2"/>
<rect x="592" y="88" width="12" height="12" rx="2"/><rect x="662" y="88" width="12" height="12" rx="2"/>
<rect x="718" y="88" width="12" height="12" rx="2"/>
</g>
<g fill="#006d32">
<rect x="4"   y="88" width="12" height="12" rx="2"/><rect x="46"  y="88" width="12" height="12" rx="2"/>
<rect x="88"  y="88" width="12" height="12" rx="2"/><rect x="130" y="88" width="12" height="12" rx="2"/>
<rect x="158" y="88" width="12" height="12" rx="2"/><rect x="200" y="88" width="12" height="12" rx="2"/>
<rect x="256" y="88" width="12" height="12" rx="2"/><rect x="284" y="88" width="12" height="12" rx="2"/>
<rect x="340" y="88" width="12" height="12" rx="2"/><rect x="396" y="88" width="12" height="12" rx="2"/>
<rect x="452" y="88" width="12" height="12" rx="2"/><rect x="508" y="88" width="12" height="12" rx="2"/>
<rect x="564" y="88" width="12" height="12" rx="2"/><rect x="606" y="88" width="12" height="12" rx="2"/>
<rect x="634" y="88" width="12" height="12" rx="2"/><rect x="676" y="88" width="12" height="12" rx="2"/>
<rect x="732" y="88" width="12" height="12" rx="2"/><rect x="760" y="88" width="12" height="12" rx="2"/>
</g>
<g fill="#26a641">
<rect x="18"  y="88" width="12" height="12" rx="2"/><rect x="60"  y="88" width="12" height="12" rx="2"/>
<rect x="102" y="88" width="12" height="12" rx="2"/><rect x="144" y="88" width="12" height="12" rx="2"/>
<rect x="172" y="88" width="12" height="12" rx="2"/><rect x="214" y="88" width="12" height="12" rx="2"/>
<rect x="228" y="88" width="12" height="12" rx="2"/><rect x="270" y="88" width="12" height="12" rx="2"/>
<rect x="298" y="88" width="12" height="12" rx="2"/><rect x="326" y="88" width="12" height="12" rx="2"/>
<rect x="354" y="88" width="12" height="12" rx="2"/><rect x="410" y="88" width="12" height="12" rx="2"/>
<rect x="438" y="88" width="12" height="12" rx="2"/><rect x="466" y="88" width="12" height="12" rx="2"/>
<rect x="522" y="88" width="12" height="12" rx="2"/><rect x="550" y="88" width="12" height="12" rx="2"/>
<rect x="578" y="88" width="12" height="12" rx="2"/><rect x="620" y="88" width="12" height="12" rx="2"/>
<rect x="648" y="88" width="12" height="12" rx="2"/><rect x="690" y="88" width="12" height="12" rx="2"/>
<rect x="704" y="88" width="12" height="12" rx="2"/><rect x="746" y="88" width="12" height="12" rx="2"/>
<rect x="774" y="88" width="12" height="12" rx="2"/>
</g>

<!-- Row 5 -->
<g fill="#0e4429">
<rect x="60"  y="102" width="12" height="12" rx="2"/><rect x="130" y="102" width="12" height="12" rx="2"/>
<rect x="200" y="102" width="12" height="12" rx="2"/><rect x="270" y="102" width="12" height="12" rx="2"/>
<rect x="340" y="102" width="12" height="12" rx="2"/><rect x="410" y="102" width="12" height="12" rx="2"/>
<rect x="480" y="102" width="12" height="12" rx="2"/><rect x="550" y="102" width="12" height="12" rx="2"/>
<rect x="620" y="102" width="12" height="12" rx="2"/><rect x="690" y="102" width="12" height="12" rx="2"/>
<rect x="760" y="102" width="12" height="12" rx="2"/>
</g>
<g fill="#006d32">
<rect x="4"   y="102" width="12" height="12" rx="2"/><rect x="32"  y="102" width="12" height="12" rx="2"/>
<rect x="74"  y="102" width="12" height="12" rx="2"/><rect x="102" y="102" width="12" height="12" rx="2"/>
<rect x="144" y="102" width="12" height="12" rx="2"/><rect x="172" y="102" width="12" height="12" rx="2"/>
<rect x="214" y="102" width="12" height="12" rx="2"/><rect x="242" y="102" width="12" height="12" rx="2"/>
<rect x="284" y="102" width="12" height="12" rx="2"/><rect x="312" y="102" width="12" height="12" rx="2"/>
<rect x="354" y="102" width="12" height="12" rx="2"/><rect x="382" y="102" width="12" height="12" rx="2"/>
<rect x="424" y="102" width="12" height="12" rx="2"/><rect x="452" y="102" width="12" height="12" rx="2"/>
<rect x="494" y="102" width="12" height="12" rx="2"/><rect x="522" y="102" width="12" height="12" rx="2"/>
<rect x="564" y="102" width="12" height="12" rx="2"/><rect x="592" y="102" width="12" height="12" rx="2"/>
<rect x="634" y="102" width="12" height="12" rx="2"/><rect x="662" y="102" width="12" height="12" rx="2"/>
<rect x="704" y="102" width="12" height="12" rx="2"/><rect x="732" y="102" width="12" height="12" rx="2"/>
<rect x="774" y="102" width="12" height="12" rx="2"/>
</g>
<g fill="#26a641">
<rect x="18"  y="102" width="12" height="12" rx="2"/><rect x="46"  y="102" width="12" height="12" rx="2"/>
<rect x="116" y="102" width="12" height="12" rx="2"/><rect x="158" y="102" width="12" height="12" rx="2"/>
<rect x="186" y="102" width="12" height="12" rx="2"/><rect x="228" y="102" width="12" height="12" rx="2"/>
<rect x="256" y="102" width="12" height="12" rx="2"/><rect x="298" y="102" width="12" height="12" rx="2"/>
<rect x="326" y="102" width="12" height="12" rx="2"/><rect x="368" y="102" width="12" height="12" rx="2"/>
<rect x="396" y="102" width="12" height="12" rx="2"/><rect x="438" y="102" width="12" height="12" rx="2"/>
<rect x="466" y="102" width="12" height="12" rx="2"/><rect x="508" y="102" width="12" height="12" rx="2"/>
<rect x="536" y="102" width="12" height="12" rx="2"/><rect x="578" y="102" width="12" height="12" rx="2"/>
<rect x="606" y="102" width="12" height="12" rx="2"/><rect x="648" y="102" width="12" height="12" rx="2"/>
<rect x="676" y="102" width="12" height="12" rx="2"/><rect x="718" y="102" width="12" height="12" rx="2"/>
<rect x="746" y="102" width="12" height="12" rx="2"/>
</g>
<g fill="#39d353">
<rect x="88"  y="102" width="12" height="12" rx="2"/>
</g>

<!-- Row 6 -->
<g fill="#0e4429">
<rect x="18"  y="116" width="12" height="12" rx="2"/><rect x="102" y="116" width="12" height="12" rx="2"/>
<rect x="186" y="116" width="12" height="12" rx="2"/><rect x="270" y="116" width="12" height="12" rx="2"/>
<rect x="354" y="116" width="12" height="12" rx="2"/><rect x="438" y="116" width="12" height="12" rx="2"/>
<rect x="522" y="116" width="12" height="12" rx="2"/><rect x="606" y="116" width="12" height="12" rx="2"/>
<rect x="690" y="116" width="12" height="12" rx="2"/><rect x="760" y="116" width="12" height="12" rx="2"/>
</g>
<g fill="#006d32">
<rect x="4"   y="116" width="12" height="12" rx="2"/><rect x="46"  y="116" width="12" height="12" rx="2"/>
<rect x="60"  y="116" width="12" height="12" rx="2"/><rect x="116" y="116" width="12" height="12" rx="2"/>
<rect x="144" y="116" width="12" height="12" rx="2"/><rect x="158" y="116" width="12" height="12" rx="2"/>
<rect x="200" y="116" width="12" height="12" rx="2"/><rect x="228" y="116" width="12" height="12" rx="2"/>
<rect x="242" y="116" width="12" height="12" rx="2"/><rect x="284" y="116" width="12" height="12" rx="2"/>
<rect x="312" y="116" width="12" height="12" rx="2"/><rect x="326" y="116" width="12" height="12" rx="2"/>
<rect x="368" y="116" width="12" height="12" rx="2"/><rect x="396" y="116" width="12" height="12" rx="2"/>
<rect x="410" y="116" width="12" height="12" rx="2"/><rect x="452" y="116" width="12" height="12" rx="2"/>
<rect x="480" y="116" width="12" height="12" rx="2"/><rect x="494" y="116" width="12" height="12" rx="2"/>
<rect x="536" y="116" width="12" height="12" rx="2"/><rect x="564" y="116" width="12" height="12" rx="2"/>
<rect x="578" y="116" width="12" height="12" rx="2"/><rect x="620" y="116" width="12" height="12" rx="2"/>
<rect x="648" y="116" width="12" height="12" rx="2"/><rect x="662" y="116" width="12" height="12" rx="2"/>
<rect x="704" y="116" width="12" height="12" rx="2"/><rect x="732" y="116" width="12" height="12" rx="2"/>
<rect x="746" y="116" width="12" height="12" rx="2"/><rect x="774" y="116" width="12" height="12" rx="2"/>
</g>
<g fill="#26a641">
<rect x="32"  y="116" width="12" height="12" rx="2"/><rect x="74"  y="116" width="12" height="12" rx="2"/>
<rect x="88"  y="116" width="12" height="12" rx="2"/><rect x="130" y="116" width="12" height="12" rx="2"/>
<rect x="172" y="116" width="12" height="12" rx="2"/><rect x="214" y="116" width="12" height="12" rx="2"/>
<rect x="256" y="116" width="12" height="12" rx="2"/><rect x="298" y="116" width="12" height="12" rx="2"/>
<rect x="340" y="116" width="12" height="12" rx="2"/><rect x="382" y="116" width="12" height="12" rx="2"/>
<rect x="424" y="116" width="12" height="12" rx="2"/><rect x="466" y="116" width="12" height="12" rx="2"/>
<rect x="508" y="116" width="12" height="12" rx="2"/><rect x="550" y="116" width="12" height="12" rx="2"/>
<rect x="592" y="116" width="12" height="12" rx="2"/><rect x="634" y="116" width="12" height="12" rx="2"/>
<rect x="676" y="116" width="12" height="12" rx="2"/><rect x="718" y="116" width="12" height="12" rx="2"/>
</g>
<g fill="#39d353">
<rect x="466" y="116" width="12" height="12" rx="2"/>
</g>
</g>

<!-- ── DATA DOTS (white dots on grid) ── -->
<g class="dtw" fill="rgba(255,255,255,0.4)">
  <circle cx="25"  cy="38"  r="2"/><circle cx="53"  cy="38"  r="2"/><circle cx="109" cy="38"  r="2"/>
  <circle cx="165" cy="38"  r="2"/><circle cx="221" cy="38"  r="2"/><circle cx="277" cy="38"  r="2"/>
  <circle cx="333" cy="38"  r="2"/><circle cx="389" cy="38"  r="2"/><circle cx="445" cy="38"  r="2"/>
  <circle cx="501" cy="38"  r="2"/><circle cx="557" cy="38"  r="2"/><circle cx="613" cy="38"  r="2"/>
  <circle cx="669" cy="38"  r="2"/><circle cx="725" cy="38"  r="2"/>
  <circle cx="25"  cy="52"  r="2"/><circle cx="81"  cy="52"  r="2"/><circle cx="137" cy="52"  r="2"/>
  <circle cx="193" cy="52"  r="2"/><circle cx="249" cy="52"  r="2"/><circle cx="305" cy="52"  r="2"/>
  <circle cx="361" cy="52"  r="2"/><circle cx="417" cy="52"  r="2"/><circle cx="473" cy="52"  r="2"/>
  <circle cx="529" cy="52"  r="2"/><circle cx="585" cy="52"  r="2"/><circle cx="641" cy="52"  r="2"/>
  <circle cx="697" cy="52"  r="2"/><circle cx="753" cy="52"  r="2"/>
  <circle cx="39"  cy="66"  r="2"/><circle cx="95"  cy="66"  r="2"/><circle cx="151" cy="66"  r="2"/>
  <circle cx="207" cy="66"  r="2"/><circle cx="263" cy="66"  r="2"/><circle cx="319" cy="66"  r="2"/>
  <circle cx="375" cy="66"  r="2"/><circle cx="431" cy="66"  r="2"/><circle cx="487" cy="66"  r="2"/>
  <circle cx="543" cy="66"  r="2"/><circle cx="599" cy="66"  r="2"/><circle cx="655" cy="66"  r="2"/>
  <circle cx="711" cy="66"  r="2"/><circle cx="767" cy="66"  r="2"/>
  <circle cx="11"  cy="80"  r="2"/><circle cx="67"  cy="80"  r="2"/><circle cx="123" cy="80"  r="2"/>
  <circle cx="179" cy="80"  r="2"/><circle cx="235" cy="80"  r="2"/><circle cx="291" cy="80"  r="2"/>
  <circle cx="347" cy="80"  r="2"/><circle cx="403" cy="80"  r="2"/><circle cx="459" cy="80"  r="2"/>
  <circle cx="515" cy="80"  r="2"/><circle cx="571" cy="80"  r="2"/><circle cx="627" cy="80"  r="2"/>
  <circle cx="683" cy="80"  r="2"/><circle cx="739" cy="80"  r="2"/>
  <circle cx="25"  cy="94"  r="2"/><circle cx="81"  cy="94"  r="2"/><circle cx="137" cy="94"  r="2"/>
  <circle cx="193" cy="94"  r="2"/><circle cx="249" cy="94"  r="2"/><circle cx="305" cy="94"  r="2"/>
  <circle cx="361" cy="94"  r="2"/><circle cx="417" cy="94"  r="2"/><circle cx="473" cy="94"  r="2"/>
  <circle cx="529" cy="94"  r="2"/><circle cx="585" cy="94"  r="2"/><circle cx="641" cy="94"  r="2"/>
  <circle cx="697" cy="94"  r="2"/><circle cx="753" cy="94"  r="2"/>
  <circle cx="11"  cy="108" r="2"/><circle cx="67"  cy="108" r="2"/><circle cx="123" cy="108" r="2"/>
  <circle cx="179" cy="108" r="2"/><circle cx="235" cy="108" r="2"/><circle cx="291" cy="108" r="2"/>
  <circle cx="347" cy="108" r="2"/><circle cx="403" cy="108" r="2"/><circle cx="459" cy="108" r="2"/>
  <circle cx="515" cy="108" r="2"/><circle cx="571" cy="108" r="2"/><circle cx="627" cy="108" r="2"/>
  <circle cx="683" cy="108" r="2"/><circle cx="739" cy="108" r="2"/>
</g>

<!-- ── THREATS on grid ── -->
<!-- 12 threats scattered across rows -->
<g class="mono" font-size="7" font-weight="bold" text-anchor="middle" dominant-baseline="middle">
  <!-- SQL -->
  <g class="tp0"><rect x="130" y="32" width="28" height="12" rx="2" fill="#ff3344"/><text x="144" y="38.5" fill="#fff">SQL</text></g>
  <!-- DDOS -->
  <g class="tp1"><rect x="354" y="46" width="28" height="12" rx="2" fill="#ff8800"/><text x="368" y="52.5" fill="#fff">DDOS</text></g>
  <!-- XSS -->
  <g class="tp2"><rect x="578" y="60" width="28" height="12" rx="2" fill="#cc44ff"/><text x="592" y="66.5" fill="#fff">XSS</text></g>
  <!-- RANSOM -->
  <g class="tp3"><rect x="88"  y="74" width="28" height="12" rx="2" fill="#ff22aa"/><text x="102" y="80.5" fill="#fff">RAN</text></g>
  <!-- ZERO-DAY -->
  <g class="tp4"><rect x="312" y="88" width="28" height="12" rx="2" fill="#ff1111"/><text x="326" y="94.5" fill="#fff">0DAY</text></g>
  <!-- MITM -->
  <g class="tp5"><rect x="536" y="102" width="28" height="12" rx="2" fill="#44bbff"/><text x="550" y="108.5" fill="#fff">MITM</text></g>
  <!-- ROOTKIT -->
  <g class="tp6"><rect x="704" y="116" width="28" height="12" rx="2" fill="#ff55bb"/><text x="718" y="122.5" fill="#fff">ROOT</text></g>
  <!-- PHISH -->
  <g class="tp7"><rect x="200" y="32" width="28" height="12" rx="2" fill="#ffcc00"/><text x="214" y="38.5" fill="#0d1117">PHSH</text></g>
  <!-- BRUTE -->
  <g class="tp8"><rect x="466" y="60" width="28" height="12" rx="2" fill="#ff6600"/><text x="480" y="66.5" fill="#fff">BRUT</text></g>
  <!-- KEYLOG -->
  <g class="tp9"><rect x="648" y="74" width="28" height="12" rx="2" fill="#ff3399"/><text x="662" y="80.5" fill="#fff">KLOG</text></g>
  <!-- SPOOF -->
  <g class="tp10"><rect x="172" y="102" width="28" height="12" rx="2" fill="#7744ff"/><text x="186" y="108.5" fill="#fff">SPOF</text></g>
  <!-- TROJAN -->
  <g class="tp11"><rect x="410" y="116" width="28" height="12" rx="2" fill="#ff4400"/><text x="424" y="122.5" fill="#fff">TROJ</text></g>
</g>

<!-- ── SCORE POP-UPS ── -->
<g class="mono" font-size="8" font-weight="bold" text-anchor="middle">
  <text class="sp0"  x="144" y="32"  fill="#ff3344">+20</text>
  <text class="sp1"  x="368" y="46"  fill="#ff8800">+20</text>
  <text class="sp2"  x="592" y="60"  fill="#cc44ff">+20</text>
  <text class="sp3"  x="102" y="74"  fill="#ff22aa">+20</text>
  <text class="sp4"  x="326" y="88"  fill="#ff1111">+20</text>
  <text class="sp5"  x="550" y="102" fill="#44bbff">+20</text>
  <text class="sp6"  x="718" y="116" fill="#ff55bb">+20</text>
  <text class="sp7"  x="214" y="32"  fill="#ffcc00">+20</text>
  <text class="sp8"  x="480" y="60"  fill="#ff6600">+20</text>
  <text class="sp9"  x="662" y="74"  fill="#ff3399">+20</text>
  <text class="sp10" x="186" y="102" fill="#7744ff">+20</text>
  <text class="sp11" x="424" y="116" fill="#ff4400">+20</text>
</g>

<!-- ── PAC-MAN (animated travel) ── -->
<g class="pac">
  <!-- Body — right facing mouth -->
  <path class="mouth-r" fill="#ffee00"
    d="M14,14 L26,6 A13,13 0 1,1 26,22 Z"/>
  <!-- Eye -->
  <circle cx="18" cy="8" r="2" fill="#0d1117"/>
</g>

<!-- ── BOTTOM BAR ── -->
<rect x="0" y="138" width="780" height="1" fill="#0a2010"/>
<rect x="0" y="138" width="780" height="28" fill="#060d0a"/>
<rect x="0" y="154" width="780" height="12" fill="#060d0a" rx="12"/>

<!-- Bar track -->
<rect x="4" y="148" width="680" height="5" fill="#161b22" rx="3"/>
<rect x="4" y="148" height="5" fill="#00ff88" rx="3" class="barscan"/>

<!-- Cmd text cycling -->
<text x="694" y="153" class="mono cmd1" font-size="9" fill="#3a5a3a">&gt; scanning...</text>
<text x="694" y="153" class="mono cmd2" font-size="9" fill="#00ff88">&gt; sqlmap --flush</text>
<text x="694" y="153" class="mono cmd3" font-size="9" fill="#00ff88">&gt; patch --zero</text>

<!-- ── LEGEND BAR ── -->
<rect x="0" y="166" width="780" height="1" fill="#0a2010"/>
<rect x="0" y="167" width="780" height="25" fill="#060d0a"/>
<rect x="0" y="179" width="780" height="13" fill="#060d0a" rx="12"/>

<g class="mono" font-size="8" fill="#3a5a3a">
  <rect x="8"   y="173" width="9" height="9" rx="2" fill="#161b22" stroke="#21262d" stroke-width="0.5"/>
  <text x="20"  y="180">empty</text>
  <rect x="60"  y="173" width="9" height="9" rx="2" fill="#0e4429"/>
  <text x="72"  y="180">low</text>
  <rect x="104" y="173" width="9" height="9" rx="2" fill="#006d32"/>
  <text x="116" y="180">mid</text>
  <rect x="148" y="173" width="9" height="9" rx="2" fill="#26a641"/>
  <text x="160" y="180">high</text>
  <rect x="196" y="173" width="9" height="9" rx="2" fill="#39d353"/>
  <text x="208" y="180">peak</text>
  <circle cx="252" cy="178" r="4.5" fill="#ffee00"/>
  <text x="260" y="180" fill="#3a5a3a">pac-man hacker</text>
  <rect x="348" y="173" width="9" height="9" rx="2" fill="#ff3344"/>
  <text x="360" y="180">cyber threat</text>
  <circle cx="440" cy="178" r="3" fill="rgba(255,255,255,0.4)"/>
  <text x="448" y="180">data packet</text>
</g>

</svg>
